<?xml version="1.0" standalone="no"?>
<!DOCTYPE svg PUBLIC "-//W3C//DTD SVG 20010904//EN"
 "http://www.w3.org/TR/2001/REC-SVG-20010904/DTD/svg10.dtd">
<svg version="1.0" xmlns="http://www.w3.org/2000/svg"
 width="401.000000pt" height="401.000000pt" viewBox="0 0 401.000000 401.000000"
 preserveAspectRatio="xMidYMid meet">
<metadata>
Created by potrace 1.11, written by Peter Selinger 2001-2013
</metadata>
<g transform="translate(0.000000,401.000000) scale(0.100000,-0.100000)"
fill="#000000" stroke="none">
<path d="M2165 3980 c-5 -10 -2 -3960 4 -3961 3 -1 172 -2 374 -3 240 -1 371
2 375 9 8 12 11 3954 3 3956 -19 4 -753 3 -756 -1z"/>
<path d="M3253 2992 l-23 -3 0 -1485 c0 -816 3 -1485 8 -1485 25 -4 745 -3
751 1 12 8 8 2970 -4 2971 -36 2 -714 3 -732 1z"/>
<path d="M1094 1008 l1 -993 370 -1 c204 0 375 2 382 4 8 3 11 250 11 993 l0
989 -383 0 -383 0 2 -992z"/>
<path d="M26 1001 c-1 -3 -2 -226 -2 -496 l1 -490 380 0 380 0 3 496 2 496
-380 0 c-209 0 -382 -3 -384 -6z"/>
</g>
</svg>
